<?xml version="1.0" encoding="UTF-8" standalone="no"?>
<!-- Created with Inkscape (http://www.inkscape.org/) -->

<svg
   xmlns:dc="http://purl.org/dc/elements/1.1/"
   xmlns:cc="http://creativecommons.org/ns#"
   xmlns:rdf="http://www.w3.org/1999/02/22-rdf-syntax-ns#"
   xmlns:svg="http://www.w3.org/2000/svg"
   xmlns="http://www.w3.org/2000/svg"
   xmlns:sodipodi="http://sodipodi.sourceforge.net/DTD/sodipodi-0.dtd"
   xmlns:inkscape="http://www.inkscape.org/namespaces/inkscape"
   version="1.1"
   id="svg2"
   xml:space="preserve"
   width="2529.3579"
   height="671.73224"
   viewBox="0 0 2529.358 671.73221"
   sodipodi:docname="2D.svg"
   inkscape:version="0.92.4 (5da689c313, 2019-01-14)"><metadata
     id="metadata8"><rdf:RDF><cc:Work
         rdf:about=""><dc:format>image/svg+xml</dc:format><dc:type
           rdf:resource="http://purl.org/dc/dcmitype/StillImage" /><dc:title></dc:title></cc:Work></rdf:RDF></metadata><defs
     id="defs6" /><sodipodi:namedview
     pagecolor="#ffffff"
     bordercolor="#666666"
     borderopacity="1"
     objecttolerance="10"
     gridtolerance="10"
     guidetolerance="10"
     inkscape:pageopacity="0"
     inkscape:pageshadow="2"
     inkscape:window-width="1920"
     inkscape:window-height="1033"
     id="namedview4"
     showgrid="false"
     fit-margin-top="0"
     fit-margin-left="0"
     fit-margin-right="0"
     fit-margin-bottom="0"
     inkscape:zoom="0.21024124"
     inkscape:cx="-80.421554"
     inkscape:cy="260.51338"
     inkscape:window-x="0"
     inkscape:window-y="0"
     inkscape:window-maximized="1"
     inkscape:current-layer="g10" /><g
     id="g10"
     inkscape:groupmode="layer"
     inkscape:label="découpe boite - 2020-06-03T224638.308"
     transform="matrix(1.3333333,0,0,-1.3333333,88.411174,804.80008)"><g
       id="g865"
       style="stroke-width:1.5;stroke-miterlimit:10;stroke-dasharray:none"
       transform="rotate(-90,275.02368,368.64529)"><path
         inkscape:connector-curvature="0"
         id="path12"
         style="fill:none;stroke:#000000;stroke-width:1.5;stroke-linecap:butt;stroke-linejoin:miter;stroke-miterlimit:10;stroke-dasharray:none;stroke-opacity:1"
         d="m 249.44882,497.48055 h 85.03937 V 355.74827 h -85.03937 v 141.73228" /><path
         inkscape:connector-curvature="0"
         id="path14"
         style="fill:none;stroke:#000000;stroke-width:1.5;stroke-linecap:butt;stroke-linejoin:miter;stroke-miterlimit:10;stroke-dasharray:none;stroke-opacity:1"
         d="m 46.488189,819.4963 h 21.259842 v 5.66929 h 28.913386 v -5.66929 h 41.952753 v 5.66929 h 28.91339 v -5.66929 h 21.25984 v -15.59055 h 5.66929 v -11.90551 h -5.66929 v -15.02363 h 72.4252 v 5.6693 h 28.91338 v -5.6693 h 145.41733 v 5.6693 h 28.91338 v -5.6693 h 72.99213 V 616.11047 h 5.66929 v -28.91338 h -5.66929 V 266.03173 h 5.66929 v -28.91338 h -5.66929 V 76.252205 h -72.99213 v -5.669292 h -28.91338 v 5.669292 H 290.12598 V 70.582913 H 261.2126 v 5.669292 H 188.7874 V 61.228583 h 5.66929 V 49.323071 H 188.7874 V 33.73252 H 167.52756 V 28.063228 H 138.61417 V 33.73252 H 96.661417 V 28.063228 H 67.748031 V 33.73252 H 46.488189 V 215.8585 h -5.669291 v 28.91339 h 5.669291 v 363.68504 h -5.669291 v 28.91338 h 5.669291 V 819.4963" /></g><g
       id="g861"
       style="stroke-width:1.5;stroke-miterlimit:10;stroke-dasharray:none"
       transform="rotate(-90,953.52834,127.69127)"><path
         inkscape:connector-curvature="0"
         id="path12-3"
         style="fill:none;stroke:#000000;stroke-width:1.5;stroke-linecap:butt;stroke-linejoin:miter;stroke-miterlimit:10;stroke-dasharray:none;stroke-opacity:1"
         d="m 654.98838,795.11582 h 18.56693 v -5.66928 h 11.05512 v 5.66928 h 7.22834 V 607.03708 h -5.66929 v -28.06299 h 5.66929 V 214.43866 h -5.66929 v -28.06298 h 5.66929 V -1.7030675 h -7.22834 v 5.66925 h -11.05512 v -5.66925 H 654.98838 V 795.11582" /><path
         inkscape:connector-curvature="0"
         id="path14-6"
         style="fill:none;stroke:#000000;stroke-width:1.5;stroke-linecap:butt;stroke-linejoin:miter;stroke-miterlimit:10;stroke-dasharray:none;stroke-opacity:1"
         d="m 731.24036,795.11582 h 6.94488 v 5.66929 h 11.62205 v -5.66929 h 6.94487 v -21.5433 h -5.66929 v -28.063 h 5.66929 v -42.80315 h -5.66929 v -28.06299 h 5.66929 v -27.21259 h -7.22834 v 5.66928 H 738.4687 v -5.66928 h -7.22834 v 27.21259 h -11.3386 v 28.06299 h 11.3386 v 42.80315 h -11.3386 v 28.063 h 11.3386 v 21.5433" /><path
         inkscape:connector-curvature="0"
         id="path16"
         style="fill:none;stroke:#000000;stroke-width:1.5;stroke-linecap:butt;stroke-linejoin:miter;stroke-miterlimit:10;stroke-dasharray:none;stroke-opacity:1"
         d="m 731.24036,426.6119 h 6.94488 v 5.66928 h 11.62205 v -5.66928 h 6.94487 v -15.87402 h -5.66929 v -11.05512 h 5.66929 v -15.87402 h -7.22834 v 5.6693 H 738.4687 v -5.6693 h -7.22834 v 15.87402 h -5.6693 v 11.05512 h 5.6693 v 15.87402" /><path
         inkscape:connector-curvature="0"
         id="path18"
         style="fill:none;stroke:#000000;stroke-width:1.5;stroke-linecap:butt;stroke-linejoin:miter;stroke-miterlimit:10;stroke-dasharray:none;stroke-opacity:1"
         d="m 731.24036,613.6985 h 6.94488 v 5.6693 h 11.62205 v -5.6693 h 6.94487 v -21.54331 h -5.66929 V 564.0922 h 5.66929 v -42.80314 h -5.66929 v -28.06299 h 5.66929 v -27.21261 h -7.22834 v 5.6693 H 738.4687 v -5.6693 h -7.22834 v 27.21261 h -11.3386 v 28.06299 h 11.3386 v 42.80314 h -11.3386 v 28.06299 h 11.3386 v 21.54331" /><path
         inkscape:connector-curvature="0"
         id="path20"
         style="fill:none;stroke:#000000;stroke-width:1.5;stroke-linecap:butt;stroke-linejoin:miter;stroke-miterlimit:10;stroke-dasharray:none;stroke-opacity:1"
         d="m 731.24036,327.11582 h 6.94488 v 5.6693 h 11.62205 v -5.6693 h 6.94487 v -15.874 h -5.66929 V 300.1867 h 5.66929 v -15.87402 h -7.22834 v 5.66928 H 738.4687 v -5.66928 h -7.22834 v 15.87402 h -5.6693 v 11.05512 h 5.6693 v 15.874" /><path
         inkscape:connector-curvature="0"
         id="path22"
         style="fill:none;stroke:#000000;stroke-width:1.5;stroke-linecap:butt;stroke-linejoin:miter;stroke-miterlimit:10;stroke-dasharray:none;stroke-opacity:1"
         d="m 784.81515,795.11582 h 12.61418 v 5.66929 h 11.62204 v -5.66929 h 6.94488 v -67.60629 h -5.66928 v -28.06299 h 5.66928 V 553.17882 h -5.66928 v -28.06299 h 5.66928 v -78.94489 h -10.06299 v 5.66929 h -11.05512 v -5.66929 h -10.06299 v 348.94488" /><path
         inkscape:connector-curvature="0"
         id="path24"
         style="fill:none;stroke:#000000;stroke-width:1.5;stroke-linecap:butt;stroke-linejoin:miter;stroke-miterlimit:10;stroke-dasharray:none;stroke-opacity:1"
         d="m 784.81515,412.43867 h 12.61418 v 5.66928 h 11.62204 v -5.66928 h 6.94488 v -67.6063 h -5.66928 v -28.06299 h 5.66928 V 170.50166 h -5.66928 v -28.06299 h 5.66928 V 63.493777 h -10.06299 v 5.66929 h -11.05512 v -5.66929 H 784.81515 V 412.43867" /><path
         inkscape:connector-curvature="0"
         id="path26"
         style="fill:none;stroke:#000000;stroke-width:1.5;stroke-linecap:butt;stroke-linejoin:miter;stroke-miterlimit:10;stroke-dasharray:none;stroke-opacity:1"
         d="m 844.05924,795.11582 h 15.44883 v 5.66929 h 11.62204 v -5.66929 h 9.77954 v -161.1496 h -5.6693 v -28.06299 h 5.6693 V 283.88749 h -5.6693 v -28.063 h 5.6693 V 94.674887 h -9.77954 v -5.66929 h -11.62204 v 5.66929 H 844.05924 V 365.66701 h 5.66931 V 524.1237 h -5.66931 v 270.99212" /><path
         inkscape:connector-curvature="0"
         id="path28"
         style="fill:none;stroke:#000000;stroke-width:1.5;stroke-linecap:butt;stroke-linejoin:miter;stroke-miterlimit:10;stroke-dasharray:none;stroke-opacity:1"
         d="m 908.97264,795.11582 h 15.87402 v -5.66928 h 11.0551 v 5.66928 h 21.54331 v -27.2126 h -5.66929 v -28.06298 h 5.66929 v -42.80315 h -5.66929 V 668.9741 h 5.66929 v -21.54331 h -48.47243 v 147.68503" /><path
         inkscape:connector-curvature="0"
         id="path30"
         style="fill:none;stroke:#000000;stroke-width:1.5;stroke-linecap:butt;stroke-linejoin:miter;stroke-miterlimit:10;stroke-dasharray:none;stroke-opacity:1"
         d="m 908.97264,619.3678 h 15.87402 v -5.6693 h 11.0551 v 5.6693 h 21.54331 v -27.21261 h -5.66929 V 564.0922 h 5.66929 v -42.80314 h -5.66929 v -28.06299 h 5.66929 V 471.68276 H 908.97264 V 619.3678" /><path
         inkscape:connector-curvature="0"
         id="path32"
         style="fill:none;stroke:#000000;stroke-width:1.5;stroke-linecap:butt;stroke-linejoin:miter;stroke-miterlimit:10;stroke-dasharray:none;stroke-opacity:1"
         d="m 955.74428,443.61977 -28.34644,-97.79529 v -2.83464 h 28.34644 v -39.68503 h -46.77164 v 19.84251 h 5.66929 v 28.34646 h -5.66929 v 42.51969 h 5.66929 v 28.34645 h -5.66929 v 21.25985 h 46.77164" /><path
         inkscape:connector-curvature="0"
         id="path34"
         style="fill:none;stroke:#000000;stroke-width:1.5;stroke-linecap:butt;stroke-linejoin:miter;stroke-miterlimit:10;stroke-dasharray:none;stroke-opacity:1"
         d="m 955.74428,267.87174 -28.34644,-97.79529 v -2.83464 h 28.34644 v -39.68503 h -46.77164 v 19.84251 h 5.66929 v 28.34646 h -5.66929 v 42.51968 h 5.66929 v 28.34646 h -5.66929 v 21.25985 h 46.77164" /></g></g></svg>