<?xml version="1.0" encoding="UTF-8" standalone="no"?>
<!-- Created with Inkscape (http://www.inkscape.org/) -->

<svg
   xmlns:dc="http://purl.org/dc/elements/1.1/"
   xmlns:cc="http://creativecommons.org/ns#"
   xmlns:rdf="http://www.w3.org/1999/02/22-rdf-syntax-ns#"
   xmlns:svg="http://www.w3.org/2000/svg"
   xmlns="http://www.w3.org/2000/svg"
   xmlns:xlink="http://www.w3.org/1999/xlink"
   xmlns:sodipodi="http://sodipodi.sourceforge.net/DTD/sodipodi-0.dtd"
   xmlns:inkscape="http://www.inkscape.org/namespaces/inkscape"
   width="130.99774mm"
   height="88.369835mm"
   viewBox="0 0 130.99774 88.369835"
   version="1.1"
   id="svg8"
   inkscape:version="0.92.4 (5da689c313, 2019-01-14)"
   sodipodi:docname="kerf.svg">
  <defs
     id="defs2">
    <linearGradient
       inkscape:collect="always"
       id="linearGradient3426">
      <stop
         style="stop-color:#d35fcf;stop-opacity:1;"
         offset="0"
         id="stop3422" />
      <stop
         style="stop-color:#d35fcf;stop-opacity:0;"
         offset="1"
         id="stop3424" />
    </linearGradient>
    <marker
       inkscape:isstock="true"
       style="overflow:visible"
       id="marker2824"
       refX="0"
       refY="0"
       orient="auto"
       inkscape:stockid="Arrow1Mstart">
      <path
         transform="matrix(0.4,0,0,0.4,4,0)"
         style="fill:#000000;fill-opacity:1;fill-rule:evenodd;stroke:#000000;stroke-width:1.00000003pt;stroke-opacity:1"
         d="M 0,0 5,-5 -12.5,0 5,5 Z"
         id="path2822"
         inkscape:connector-curvature="0" />
    </marker>
    <marker
       inkscape:stockid="Arrow1Mend"
       orient="auto"
       refY="0"
       refX="0"
       id="Arrow1Mend"
       style="overflow:visible"
       inkscape:isstock="true">
      <path
         id="path872"
         d="M 0,0 5,-5 -12.5,0 5,5 Z"
         style="fill:#c12300;fill-opacity:1;fill-rule:evenodd;stroke:#c12300;stroke-width:1.00000003pt;stroke-opacity:1"
         transform="matrix(-0.4,0,0,-0.4,-4,0)"
         inkscape:connector-curvature="0" />
    </marker>
    <marker
       inkscape:stockid="Arrow1Mstart"
       orient="auto"
       refY="0"
       refX="0"
       id="Arrow1Mstart"
       style="overflow:visible"
       inkscape:isstock="true"
       inkscape:collect="always">
      <path
         id="path869"
         d="M 0,0 5,-5 -12.5,0 5,5 Z"
         style="fill:#c12300;fill-opacity:1;fill-rule:evenodd;stroke:#c12300;stroke-width:1.00000003pt;stroke-opacity:1"
         transform="matrix(0.4,0,0,0.4,4,0)"
         inkscape:connector-curvature="0" />
    </marker>
    <marker
       inkscape:stockid="Arrow1Sstart"
       orient="auto"
       refY="0"
       refX="0"
       id="Arrow1Sstart"
       style="overflow:visible"
       inkscape:isstock="true">
      <path
         id="path875"
         d="M 0,0 5,-5 -12.5,0 5,5 Z"
         style="fill:#c12300;fill-opacity:1;fill-rule:evenodd;stroke:#c12300;stroke-width:1.00000003pt;stroke-opacity:1"
         transform="matrix(0.2,0,0,0.2,1.2,0)"
         inkscape:connector-curvature="0" />
    </marker>
    <marker
       inkscape:stockid="Arrow1Lstart"
       orient="auto"
       refY="0"
       refX="0"
       id="Arrow1Lstart"
       style="overflow:visible"
       inkscape:isstock="true">
      <path
         id="path863"
         d="M 0,0 5,-5 -12.5,0 5,5 Z"
         style="fill:#000000;fill-opacity:1;fill-rule:evenodd;stroke:#000000;stroke-width:1.00000003pt;stroke-opacity:1"
         transform="matrix(0.8,0,0,0.8,10,0)"
         inkscape:connector-curvature="0" />
    </marker>
    <marker
       inkscape:stockid="Arrow1Mstart"
       orient="auto"
       refY="0"
       refX="0"
       id="Arrow1Mstart-3"
       style="overflow:visible"
       inkscape:isstock="true">
      <path
         inkscape:connector-curvature="0"
         id="path869-5"
         d="M 0,0 5,-5 -12.5,0 5,5 Z"
         style="fill:#c12300;fill-opacity:1;fill-rule:evenodd;stroke:#c12300;stroke-width:1.00000003pt;stroke-opacity:1"
         transform="matrix(0.4,0,0,0.4,4,0)" />
    </marker>
    <marker
       inkscape:stockid="Arrow1Mend"
       orient="auto"
       refY="0"
       refX="0"
       id="Arrow1Mend-6"
       style="overflow:visible"
       inkscape:isstock="true">
      <path
         inkscape:connector-curvature="0"
         id="path872-2"
         d="M 0,0 5,-5 -12.5,0 5,5 Z"
         style="fill:#c12300;fill-opacity:1;fill-rule:evenodd;stroke:#c12300;stroke-width:1.00000003pt;stroke-opacity:1"
         transform="matrix(-0.4,0,0,-0.4,-4,0)" />
    </marker>
    <linearGradient
       inkscape:collect="always"
       xlink:href="#linearGradient3426"
       id="linearGradient3428"
       x1="113.39286"
       y1="164.70833"
       x2="113.39286"
       y2="102.62574"
       gradientUnits="userSpaceOnUse" />
  </defs>
  <sodipodi:namedview
     id="base"
     pagecolor="#ffffff"
     bordercolor="#666666"
     borderopacity="1.0"
     inkscape:pageopacity="0.0"
     inkscape:pageshadow="2"
     inkscape:zoom="0.98994949"
     inkscape:cx="10.545323"
     inkscape:cy="78.325363"
     inkscape:document-units="mm"
     inkscape:current-layer="layer1"
     showgrid="false"
     fit-margin-top="0"
     fit-margin-left="0"
     fit-margin-right="0"
     fit-margin-bottom="0"
     inkscape:window-width="1920"
     inkscape:window-height="1033"
     inkscape:window-x="0"
     inkscape:window-y="0"
     inkscape:window-maximized="1" />
  <metadata
     id="metadata5">
    <rdf:RDF>
      <cc:Work
         rdf:about="">
        <dc:format>image/svg+xml</dc:format>
        <dc:type
           rdf:resource="http://purl.org/dc/dcmitype/StillImage" />
        <dc:title></dc:title>
      </cc:Work>
    </rdf:RDF>
  </metadata>
  <g
     inkscape:label="Calque 1"
     inkscape:groupmode="layer"
     id="layer1"
     transform="translate(-61.89879,-102.83679)">
    <path
       style="fill:none;stroke:#c12300;stroke-width:0.76499999;stroke-linecap:butt;stroke-linejoin:miter;stroke-miterlimit:4;stroke-dasharray:2.295, 0.765;stroke-dashoffset:7.6500001;stroke-opacity:1"
       d="m 109.04597,175.79327 v 8.68626 l 0.40745,-0.10918"
       id="path844"
       inkscape:connector-curvature="0" />
    <path
       style="opacity:1;fill:#d38d5f;fill-opacity:1;stroke:#000000;stroke-width:1.803;stroke-linecap:round;stroke-linejoin:miter;stroke-miterlimit:10;stroke-dasharray:none;stroke-dashoffset:0;stroke-opacity:1"
       d="m 62.407433,161.22708 h 46.638537 v 14.56619 H 62.407433"
       id="rect826"
       inkscape:connector-curvature="0"
       sodipodi:nodetypes="cccc" />
    <path
       style="fill:none;stroke:#c12300;stroke-width:0.76499999;stroke-linecap:butt;stroke-linejoin:miter;stroke-miterlimit:4;stroke-dasharray:2.29500002, 0.76500001;stroke-dashoffset:7.6500001;stroke-opacity:1"
       d="m 117.26093,175.79327 v 8.68626 l 0.40745,-0.10918"
       id="path844-6"
       inkscape:connector-curvature="0" />
    <path
       style="opacity:1;fill:#d38d5f;fill-opacity:1;stroke:#000000;stroke-width:1.803;stroke-linecap:round;stroke-linejoin:miter;stroke-miterlimit:10;stroke-dasharray:none;stroke-dashoffset:0;stroke-opacity:1"
       d="m 163.89946,161.22708 h -46.63853 v 14.56619 h 46.63853"
       id="rect826-3"
       inkscape:connector-curvature="0"
       sodipodi:nodetypes="cccc" />
    <path
       style="fill:none;stroke:#c12300;stroke-width:0.26499999;stroke-linecap:butt;stroke-linejoin:miter;stroke-miterlimit:4;stroke-dasharray:none;stroke-opacity:1;marker-start:url(#Arrow1Mstart);marker-end:url(#Arrow1Mend)"
       d="m 109.40048,185.3789 h 7.39416"
       id="path861"
       inkscape:connector-curvature="0" />
    <g
       aria-label="kerf"
       style="font-style:normal;font-variant:normal;font-weight:bold;font-stretch:normal;font-size:5.7392292px;line-height:1.25;font-family:sans-serif;-inkscape-font-specification:'sans-serif, Bold';font-variant-ligatures:normal;font-variant-caps:normal;font-variant-numeric:normal;font-feature-settings:normal;text-align:start;letter-spacing:0px;word-spacing:0px;writing-mode:lr-tb;text-anchor:start;fill:#000000;fill-opacity:1;stroke:none;stroke-width:0.53805268"
       id="text1249">
      <path
         d="m 107.77126,186.76488 h 1.00324 v 2.3736 l 1.15457,-1.15177 h 1.16579 l -1.53289,1.44041 1.65339,1.69823 h -1.21623 l -1.22463,-1.3087 v 1.3087 h -1.00324 z"
         style="stroke-width:0.53805268"
         id="path917" />
      <path
         d="m 114.56978,189.54762 v 0.28584 h -2.34557 q 0.0364,0.3531 0.25501,0.52965 0.21858,0.17655 0.61091,0.17655 0.31667,0 0.64735,-0.0925 0.33348,-0.0953 0.68377,-0.28584 v 0.77345 q -0.3559,0.13451 -0.71179,0.20177 -0.3559,0.0701 -0.7118,0.0701 -0.85192,0 -1.32552,-0.43156 -0.4708,-0.43437 -0.4708,-1.21623 0,-0.76784 0.46239,-1.20781 0.4652,-0.43997 1.27788,-0.43997 0.73982,0 1.18259,0.44557 0.44558,0.44558 0.44558,1.191 z m -1.03127,-0.33348 q 0,-0.28584 -0.16814,-0.45958 -0.16534,-0.17655 -0.43437,-0.17655 -0.29144,0 -0.47359,0.16534 -0.18216,0.16253 -0.22699,0.47079 z"
         style="stroke-width:0.53805268"
         id="path919" />
      <path
         d="m 117.65798,188.84143 q -0.13171,-0.0617 -0.26342,-0.0897 -0.12891,-0.0308 -0.26062,-0.0308 -0.38673,0 -0.59691,0.24941 -0.20737,0.24661 -0.20737,0.70899 v 1.44602 h -1.00324 v -3.13864 h 1.00324 v 0.51563 q 0.19336,-0.30826 0.44277,-0.44837 0.25221,-0.14292 0.60251,-0.14292 0.0504,0 0.10929,0.006 0.0589,0.003 0.17095,0.0168 z"
         style="stroke-width:0.53805268"
         id="path921" />
      <path
         d="m 120.22774,186.76488 v 0.65856 h -0.55487 q -0.21298,0 -0.29705,0.0785 -0.0841,0.0757 -0.0841,0.26623 v 0.21858 h 0.85752 v 0.7174 h -0.85752 v 2.42124 h -1.00324 v -2.42124 h -0.49882 v -0.7174 h 0.49882 v -0.21858 q 0,-0.51284 0.28584,-0.75664 0.28584,-0.24661 0.88554,-0.24661 z"
         style="stroke-width:0.53805268"
         id="path923" />
    </g>
    <g
       aria-label="planche"
       style="font-style:normal;font-variant:normal;font-weight:bold;font-stretch:normal;font-size:5.73922968px;line-height:1.25;font-family:sans-serif;-inkscape-font-specification:'sans-serif, Bold';font-variant-ligatures:normal;font-variant-caps:normal;font-variant-numeric:normal;font-feature-settings:normal;text-align:start;letter-spacing:0px;word-spacing:0px;writing-mode:lr-tb;text-anchor:start;fill:#000000;fill-opacity:1;stroke:none;stroke-width:0.53805268"
       id="text1249-7">
      <path
         d="m 169.211,169.98474 v 1.64779 h -1.00324 v -4.33245 h 1.00324 v 0.45959 q 0.20738,-0.27463 0.45959,-0.40354 0.25221,-0.13171 0.58009,-0.13171 0.58009,0 0.9528,0.46238 0.37271,0.45959 0.37271,1.1854 0,0.72581 -0.37271,1.1882 -0.37271,0.45959 -0.9528,0.45959 -0.32788,0 -0.58009,-0.12891 -0.25221,-0.13171 -0.45959,-0.40634 z m 0.66696,-2.03171 q -0.32227,0 -0.49601,0.2382 -0.17095,0.2354 -0.17095,0.68097 0,0.44558 0.17095,0.68378 0.17374,0.2354 0.49601,0.2354 0.32228,0 0.49042,-0.2354 0.17094,-0.2354 0.17094,-0.68378 0,-0.44837 -0.17094,-0.68377 -0.16814,-0.2354 -0.49042,-0.2354 z"
         style="stroke-width:0.53805268"
         id="path926" />
      <path
         d="m 172.32162,166.07825 h 1.00325 v 4.36047 h -1.00325 z"
         style="stroke-width:0.53805268"
         id="path928" />
      <path
         d="m 175.70127,169.02633 q -0.31387,0 -0.4736,0.10649 -0.15693,0.10649 -0.15693,0.31387 0,0.19056 0.1261,0.29985 0.12891,0.10649 0.3559,0.10649 0.28304,0 0.4764,-0.20177 0.19336,-0.20457 0.19336,-0.51003 v -0.1149 z m 1.53289,-0.37832 v 1.79071 h -1.01166 v -0.46519 q -0.20177,0.28584 -0.45398,0.41755 -0.25221,0.12891 -0.61371,0.12891 -0.48761,0 -0.79307,-0.28304 -0.30266,-0.28584 -0.30266,-0.73982 0,-0.55207 0.37832,-0.80988 0.38112,-0.25782 1.19381,-0.25782 h 0.59129 v -0.0785 q 0,-0.2382 -0.18775,-0.34749 -0.18776,-0.11209 -0.5857,-0.11209 -0.32227,0 -0.5997,0.0644 -0.27743,0.0645 -0.51564,0.19336 v -0.76504 q 0.32228,-0.0785 0.64735,-0.1177 0.32507,-0.042 0.65015,-0.042 0.84911,0 1.22463,0.33628 0.37832,0.33348 0.37832,1.08731 z"
         style="stroke-width:0.53805268"
         id="path930" />
      <path
         d="m 181.3284,168.52751 v 1.91121 h -1.00885 v -0.31106 -1.15177 q 0,-0.40634 -0.0196,-0.56047 -0.0168,-0.15413 -0.0617,-0.22699 -0.0589,-0.0981 -0.15973,-0.15133 -0.10089,-0.056 -0.22979,-0.056 -0.31387,0 -0.49322,0.24381 -0.17935,0.241 -0.17935,0.66976 v 1.5441 h -1.00324 v -3.13864 h 1.00324 v 0.45959 q 0.22699,-0.27463 0.48201,-0.40354 0.25501,-0.13171 0.56327,-0.13171 0.54366,0 0.82389,0.33348 0.28304,0.33348 0.28304,0.96961 z"
         style="stroke-width:0.53805268"
         id="path932" />
      <path
         d="m 184.80052,167.39816 v 0.81829 q -0.20457,-0.14012 -0.41194,-0.20737 -0.20458,-0.0673 -0.42596,-0.0673 -0.42036,0 -0.65575,0.24661 -0.2326,0.2438 -0.2326,0.68377 0,0.43997 0.2326,0.68658 0.23539,0.24381 0.65575,0.24381 0.2354,0 0.44557,-0.0701 0.21298,-0.0701 0.39233,-0.20738 v 0.82109 q -0.2354,0.0869 -0.4792,0.12891 -0.241,0.0448 -0.48481,0.0448 -0.84911,0 -1.32832,-0.43437 -0.4792,-0.43716 -0.4792,-1.21342 0,-0.77625 0.4792,-1.21062 0.47921,-0.43716 1.32832,-0.43716 0.24661,0 0.48481,0.0448 0.241,0.042 0.4792,0.12891 z"
         style="stroke-width:0.53805268"
         id="path934" />
      <path
         d="m 188.82751,168.52751 v 1.91121 h -1.00885 v -0.31106 -1.14617 q 0,-0.41194 -0.0196,-0.56607 -0.0168,-0.15413 -0.0617,-0.22699 -0.0589,-0.0981 -0.15973,-0.15133 -0.10089,-0.056 -0.22979,-0.056 -0.31387,0 -0.49322,0.24381 -0.17935,0.241 -0.17935,0.66976 v 1.5441 h -1.00324 v -4.36047 h 1.00324 v 1.68142 q 0.22699,-0.27463 0.48201,-0.40354 0.25501,-0.13171 0.56327,-0.13171 0.54366,0 0.82389,0.33348 0.28304,0.33348 0.28304,0.96961 z"
         style="stroke-width:0.53805268"
         id="path936" />
      <path
         d="m 192.89654,168.86099 v 0.28584 h -2.34558 q 0.0364,0.3531 0.25502,0.52965 0.21858,0.17655 0.61091,0.17655 0.31667,0 0.64735,-0.0925 0.33348,-0.0953 0.68377,-0.28584 v 0.77345 q -0.3559,0.13451 -0.7118,0.20177 -0.3559,0.0701 -0.7118,0.0701 -0.85191,0 -1.32551,-0.43156 -0.4708,-0.43437 -0.4708,-1.21623 0,-0.76784 0.46239,-1.20781 0.46519,-0.43997 1.27788,-0.43997 0.73982,0 1.18259,0.44557 0.44558,0.44558 0.44558,1.191 z m -1.03127,-0.33348 q 0,-0.28584 -0.16814,-0.45958 -0.16534,-0.17655 -0.43437,-0.17655 -0.29144,0 -0.4736,0.16534 -0.18215,0.16253 -0.22699,0.47079 z"
         style="stroke-width:0.53805268"
         id="path938" />
    </g>
    <path
       style="fill:url(#linearGradient3428);fill-opacity:1;stroke:#000000;stroke-width:0.66500002;stroke-linecap:butt;stroke-linejoin:miter;stroke-miterlimit:4;stroke-dasharray:none;stroke-opacity:1"
       d="m 99.596725,102.90923 13.796135,61.7991 12.09523,-61.42113"
       id="path1269"
       inkscape:connector-curvature="0"
       sodipodi:nodetypes="ccc" />
    <path
       style="fill:none;stroke:#000000;stroke-width:1;stroke-linecap:butt;stroke-linejoin:miter;stroke-miterlimit:4;stroke-dasharray:none;stroke-opacity:1;marker-start:url(#marker2824)"
       d="m 116.03667,114.07356 h 25.16145"
       id="path861-9"
       inkscape:connector-curvature="0"
       sodipodi:nodetypes="cc" />
    <g
       aria-label="rayon laser"
       style="font-style:normal;font-variant:normal;font-weight:bold;font-stretch:normal;font-size:5.73922968px;line-height:1.25;font-family:sans-serif;-inkscape-font-specification:'sans-serif, Bold';font-variant-ligatures:normal;font-variant-caps:normal;font-variant-numeric:normal;font-feature-settings:normal;text-align:start;letter-spacing:0px;word-spacing:0px;writing-mode:lr-tb;text-anchor:start;fill:#000000;fill-opacity:1;stroke:none;stroke-width:0.53805268"
       id="text1249-1">
      <path
         d="m 145.5929,114.10419 q -0.13172,-0.0617 -0.26343,-0.0897 -0.12891,-0.0308 -0.26062,-0.0308 -0.38672,0 -0.5969,0.24941 -0.20737,0.24661 -0.20737,0.709 v 1.44602 h -1.00325 v -3.13864 h 1.00325 v 0.51563 q 0.19336,-0.30826 0.44277,-0.44838 0.25221,-0.14292 0.60251,-0.14292 0.0504,0 0.10929,0.006 0.0589,0.003 0.17094,0.0168 z"
         style="stroke-width:0.53805268"
         id="path896" />
      <path
         d="m 147.5041,114.97572 q -0.31386,0 -0.4736,0.10649 -0.15693,0.10649 -0.15693,0.31386 0,0.19056 0.12611,0.29985 0.12891,0.10649 0.3559,0.10649 0.28304,0 0.4764,-0.20177 0.19336,-0.20457 0.19336,-0.51002 v -0.1149 z m 1.53289,-0.37832 v 1.79071 h -1.01165 v -0.46519 q -0.20177,0.28584 -0.45398,0.41755 -0.25221,0.12891 -0.61372,0.12891 -0.48761,0 -0.79306,-0.28304 -0.30266,-0.28584 -0.30266,-0.73983 0,-0.55206 0.37832,-0.80988 0.38112,-0.25781 1.1938,-0.25781 h 0.5913 v -0.0785 q 0,-0.2382 -0.18776,-0.34749 -0.18775,-0.1121 -0.58569,-0.1121 -0.32227,0 -0.5997,0.0645 -0.27744,0.0644 -0.51564,0.19336 v -0.76504 q 0.32227,-0.0785 0.64735,-0.1177 0.32507,-0.042 0.65014,-0.042 0.84912,0 1.22464,0.33629 0.37831,0.33348 0.37831,1.08731 z"
         style="stroke-width:0.53805268"
         id="path898" />
      <path
         d="m 149.38449,113.24947 h 1.00324 l 0.84351,2.12979 0.7174,-2.12979 h 1.00325 l -1.31991,3.43569 q -0.19897,0.52404 -0.46519,0.73141 -0.26343,0.21018 -0.69779,0.21018 h -0.58009 v -0.65855 h 0.31386 q 0.25502,0 0.36992,-0.0813 0.11769,-0.0813 0.18215,-0.29145 l 0.028,-0.0869 z"
         style="stroke-width:0.53805268"
         id="path900" />
      <path
         d="m 155.03404,113.89121 q -0.33348,0 -0.51003,0.241 -0.17375,0.2382 -0.17375,0.68938 0,0.45118 0.17375,0.69218 0.17655,0.2382 0.51003,0.2382 0.32788,0 0.50162,-0.2382 0.17375,-0.241 0.17375,-0.69218 0,-0.45118 -0.17375,-0.68938 -0.17374,-0.241 -0.50162,-0.241 z m 0,-0.71741 q 0.80988,0 1.26386,0.43717 0.45679,0.43717 0.45679,1.21062 0,0.77345 -0.45679,1.21062 -0.45398,0.43717 -1.26386,0.43717 -0.81268,0 -1.27227,-0.43717 -0.45679,-0.43717 -0.45679,-1.21062 0,-0.77345 0.45679,-1.21062 0.45959,-0.43717 1.27227,-0.43717 z"
         style="stroke-width:0.53805268"
         id="path902" />
      <path
         d="m 160.64156,114.4769 v 1.91121 h -1.00885 v -0.31106 -1.15177 q 0,-0.40635 -0.0196,-0.56048 -0.0168,-0.15413 -0.0616,-0.22699 -0.0589,-0.0981 -0.15973,-0.15132 -0.10089,-0.056 -0.2298,-0.056 -0.31386,0 -0.49321,0.2438 -0.17935,0.24101 -0.17935,0.66977 v 1.5441 h -1.00325 v -3.13864 h 1.00325 v 0.45958 q 0.22699,-0.27463 0.482,-0.40354 0.25502,-0.13171 0.56328,-0.13171 0.54365,0 0.82389,0.33348 0.28304,0.33348 0.28304,0.96962 z"
         style="stroke-width:0.53805268"
         id="path904" />
      <path
         d="m 163.57283,112.02764 h 1.00324 v 4.36047 h -1.00324 z"
         style="stroke-width:0.53805268"
         id="path906" />
      <path
         d="m 166.95247,114.97572 q -0.31386,0 -0.4736,0.10649 -0.15693,0.10649 -0.15693,0.31386 0,0.19056 0.12611,0.29985 0.1289,0.10649 0.3559,0.10649 0.28303,0 0.4764,-0.20177 0.19336,-0.20457 0.19336,-0.51002 v -0.1149 z m 1.53289,-0.37832 v 1.79071 h -1.01165 v -0.46519 q -0.20177,0.28584 -0.45398,0.41755 -0.25222,0.12891 -0.61372,0.12891 -0.48761,0 -0.79307,-0.28304 -0.30265,-0.28584 -0.30265,-0.73983 0,-0.55206 0.37832,-0.80988 0.38112,-0.25781 1.1938,-0.25781 h 0.5913 v -0.0785 q 0,-0.2382 -0.18776,-0.34749 -0.18776,-0.1121 -0.58569,-0.1121 -0.32227,0 -0.59971,0.0645 -0.27743,0.0644 -0.51563,0.19336 v -0.76504 q 0.32227,-0.0785 0.64734,-0.1177 0.32508,-0.042 0.65015,-0.042 0.84912,0 1.22463,0.33629 0.37832,0.33348 0.37832,1.08731 z"
         style="stroke-width:0.53805268"
         id="path908" />
      <path
         d="m 171.87621,113.34755 v 0.76224 q -0.32227,-0.13451 -0.62212,-0.20177 -0.29985,-0.0673 -0.56608,-0.0673 -0.28584,0 -0.42595,0.0729 -0.13732,0.0701 -0.13732,0.21859 0,0.1205 0.10369,0.18495 0.10649,0.0645 0.37832,0.0953 l 0.17654,0.0252 q 0.77065,0.0981 1.03688,0.32227 0.26622,0.22419 0.26622,0.70339 0,0.50162 -0.36991,0.75383 -0.36991,0.25222 -1.10413,0.25222 -0.31106,0 -0.64454,-0.0504 -0.33068,-0.0476 -0.68098,-0.14572 v -0.76224 q 0.29986,0.14572 0.61372,0.21858 0.31667,0.0729 0.64174,0.0729 0.29425,0 0.44277,-0.0813 0.14853,-0.0813 0.14853,-0.24101 0,-0.13451 -0.10369,-0.19896 -0.10088,-0.0673 -0.40634,-0.10369 l -0.17655,-0.0224 q -0.66976,-0.0841 -0.93879,-0.31106 -0.26903,-0.22699 -0.26903,-0.68938 0,-0.49882 0.34189,-0.73982 0.34189,-0.24101 1.04808,-0.24101 0.27744,0 0.58289,0.042 0.30546,0.042 0.66416,0.13171 z"
         style="stroke-width:0.53805268"
         id="path910" />
      <path
         d="m 175.97606,114.81038 v 0.28584 h -2.34557 q 0.0364,0.3531 0.25501,0.52965 0.21859,0.17654 0.61092,0.17654 0.31666,0 0.64734,-0.0925 0.33348,-0.0953 0.68378,-0.28584 v 0.77345 q -0.3559,0.13451 -0.7118,0.20177 -0.3559,0.0701 -0.7118,0.0701 -0.85192,0 -1.32552,-0.43157 -0.47079,-0.43436 -0.47079,-1.21622 0,-0.76785 0.46239,-1.20782 0.46519,-0.43997 1.27787,-0.43997 0.73983,0 1.1826,0.44558 0.44557,0.44557 0.44557,1.191 z m -1.03126,-0.33348 q 0,-0.28584 -0.16815,-0.45959 -0.16534,-0.17655 -0.43436,-0.17655 -0.29145,0 -0.4736,0.16534 -0.18215,0.16254 -0.22699,0.4708 z"
         style="stroke-width:0.53805268"
         id="path912" />
      <path
         d="m 179.06426,114.10419 q -0.13171,-0.0617 -0.26342,-0.0897 -0.12891,-0.0308 -0.26062,-0.0308 -0.38672,0 -0.5969,0.24941 -0.20738,0.24661 -0.20738,0.709 v 1.44602 h -1.00324 v -3.13864 h 1.00324 v 0.51563 q 0.19337,-0.30826 0.44278,-0.44838 0.25221,-0.14292 0.6025,-0.14292 0.0505,0 0.1093,0.006 0.0588,0.003 0.17094,0.0168 z"
         style="stroke-width:0.53805268"
         id="path914" />
    </g>
  </g>
</svg>
